<?xml version="1.0" encoding="utf-8"?>
<!-- Generator: Adobe Illustrator 24.0.2, SVG Export Plug-In . SVG Version: 6.00 Build 0)  -->
<svg version="1.1" id="Layer_1" xmlns="http://www.w3.org/2000/svg" xmlns:xlink="http://www.w3.org/1999/xlink" x="0px" y="0px"
	 viewBox="0 0 537.5 539.8" style="enable-background:new 0 0 537.5 539.8;" xml:space="preserve">
<title>Artboard 36</title>
<path d="M245.1,184.8c5.2,3.8,11.7,6.1,19.4,7v10.3H278v-10.3c7.3-0.8,13.2-3,17.7-6.5c4.9-3.6,7.7-9.4,7.5-15.4
	c0-6.7-2.5-11.9-7.5-15.6c-4.7-3.4-12-6.8-21.8-10.1c-4.9-1.7-7-3.1-7.9-4c-1.2-1.1-1.8-2.7-1.7-4.3c-0.1-1.6,0.5-3.2,1.6-4.4
	c1.1-1.1,2.8-1.7,5.3-1.7c2.1-0.1,4.2,0.7,5.7,2.1c1.4,1.4,2.1,3.8,2.1,6.9v1.8h23.5l0.8-1.6v-0.4c0.3-6.4-2.2-12.6-6.9-16.9
	c-4.3-4-10.1-6.6-17.3-7.7v-11h-13.5v10.7c-7.5,0.8-13.6,3-18.3,6.6c-5,3.5-7.9,9.3-7.8,15.4c0,6.8,2.5,12.1,7.5,15.7
	c4.6,3.3,12,6.6,21.9,9.8c3.8,1.3,6.4,2.6,7.8,3.9c1.3,1.3,1.9,3,1.8,4.8c0.1,1.6-0.6,3.1-1.7,4.2c-1.2,1.1-3.1,1.6-5.6,1.6
	c-2.7,0.1-5.5-0.7-7.6-2.3c-1.8-1.5-2.7-4-2.7-7.6v-1.8h-23.3l-1,1.6v0.5C236.4,174.3,239.3,180.5,245.1,184.8z"/>
<path d="M270,233.7c44.8,0,81.2-36.4,81.2-81.2S314.8,71.3,270,71.3s-81.2,36.4-81.2,81.2S225.2,233.7,270,233.7L270,233.7z
	 M270,86.7c36.4,0,65.8,29.5,65.8,65.8s-29.5,65.9-65.8,65.9s-65.9-29.5-65.9-65.9C204.2,116.2,233.6,86.7,270,86.7L270,86.7z"/>
<rect x="92.7" y="283.9" width="271" height="160.9"/>
<polygon points="447.3,215.6 379,283.9 379,444.8 448.6,375.3 "/>
<path d="M347.6,198.9c-5.9,9.8-13.5,18.4-22.6,25.3h54.4l-18.6,19H161.5l19-19H215c-9-7-16.7-15.5-22.6-25.3H170l-69.7,69.6h271
	l68.3-69.6H347.6z"/>
</svg>
