<svg id="Layer_1" data-name="Layer 1" xmlns="http://www.w3.org/2000/svg" viewBox="0 0 537.5 539.77"><defs><style>.cls-1{fill:#1a323d;}</style></defs><title>Artboard 36</title><path class="cls-1" d="M245.05,184.78c5.22,3.8,11.74,6.15,19.41,7v10.29H278V191.8c7.28-.81,13.24-3,17.73-6.48a18.68,18.68,0,0,0,7.53-15.45c0-6.69-2.54-11.93-7.55-15.56-4.66-3.39-12-6.8-21.77-10.15-4.87-1.72-7-3.12-7.91-4a5.64,5.64,0,0,1-1.72-4.33,6,6,0,0,1,1.63-4.39c1.06-1.11,2.84-1.67,5.28-1.67a7.62,7.62,0,0,1,5.74,2.15c1.41,1.44,2.12,3.77,2.12,6.92v1.77H302.6l.79-1.59v-.4a21.64,21.64,0,0,0-6.94-16.94c-4.33-4-10.13-6.61-17.26-7.68V103H265.71v10.74c-7.49.79-13.64,3-18.32,6.62a18.67,18.67,0,0,0-7.82,15.38c0,6.83,2.51,12.1,7.46,15.66,4.61,3.32,12,6.63,21.94,9.8,3.79,1.32,6.42,2.64,7.82,3.92a6.2,6.2,0,0,1,1.8,4.84,5.37,5.37,0,0,1-1.73,4.21c-1.2,1.09-3.09,1.64-5.62,1.64a11.62,11.62,0,0,1-7.64-2.34c-1.8-1.46-2.72-4-2.72-7.57v-1.78H237.55l-1,1.55v.49C236.39,174.28,239.25,180.54,245.05,184.78Z"/><path class="cls-1" d="M270,233.73a81.2,81.2,0,1,0-81.2-81.2A81.2,81.2,0,0,0,270,233.73Zm0-147a65.85,65.85,0,1,1-65.85,65.85A65.92,65.92,0,0,1,270,86.68Z"/><rect class="cls-1" x="92.66" y="283.91" width="271.02" height="160.92"/><polygon class="cls-1" points="447.31 215.64 379.04 283.91 379.04 444.83 448.61 375.26 447.31 215.64"/><path class="cls-1" d="M347.57,198.91A91.31,91.31,0,0,1,325,224.24h54.35l-18.62,19H161.49l19-19H215a91.31,91.31,0,0,1-22.58-25.33H170l-69.65,69.65h271l68.27-69.65Z"/></svg>