<?xml version="1.0" encoding="utf-8"?>
<!-- Generator: Adobe Illustrator 24.0.2, SVG Export Plug-In . SVG Version: 6.00 Build 0)  -->
<svg version="1.1" id="Layer_1" xmlns="http://www.w3.org/2000/svg" xmlns:xlink="http://www.w3.org/1999/xlink" x="0px" y="0px"
	 viewBox="0 0 852.1 789.1" style="enable-background:new 0 0 852.1 789.1;" xml:space="preserve">
<style type="text/css">
	.st0{fill:#FFFFFF;}
</style>
<title>Artboard 33</title>
<rect x="-168" y="-174" class="st0" width="1167" height="1167"/>
<g id="XMLID_1_">
	<g>
		<path d="M415.5,301.4c0,0.3,0,0.5,0,0.8c-0.5,40.7-33.8,73.3-74.5,72.8c-40.4-0.5-72.8-33.3-72.8-73.6c-0.1,9.8-2.2,19.5-6.1,28.5
			c-16.2,37.3-59.6,54.4-96.9,38.2c-0.7-0.3-1.4-0.7-2.2-1c-32.1-15.3-46.9-52.8-35.1-86.4l48-136.2c2.9-8.1,10.5-13.5,19.1-13.5
			h441c8.6,0,16.3,5.4,19.1,13.5l48,136.2c11.9,33.5-3,71.1-35.1,86.4c-0.7,0.4-1.4,0.7-2.2,1c-9.3,4-19.3,6.1-29.4,6.1
			c-40.7,0-73.7-33-73.7-73.7c0,40.7-33,73.7-73.7,73.7C448.8,374.2,416,341.7,415.5,301.4z"/>
		<path d="M665.8,394.6V688h-71.1V442.5h-130V688H165.1V394.6c37,11.6,77.3,0.4,103.1-28.6c2.6,2.9,5.4,5.7,8.3,8.3
			c40.7,36.1,102.9,32.3,139-8.3c2.6,2.9,5.4,5.7,8.3,8.3c40.7,36.1,102.9,32.3,139-8.3C588.5,395,628.8,406.2,665.8,394.6z
			 M367.8,574.2V442.5H236.1v131.7H367.8z"/>
	</g>
	<g>
	</g>
</g>
</svg>
