<svg id="Layer_1" data-name="Layer 1" xmlns="http://www.w3.org/2000/svg" viewBox="0 0 852.09 789.08"><defs><style>.cls-1{fill:#fff;}.cls-2{fill:#231f20;}</style></defs><title>Artboard 33</title><rect class="cls-1" x="-168.03" y="-174.04" width="1167" height="1167"/><path class="cls-2" d="M703.13,280.69l-48-136.2A20.27,20.27,0,0,0,636,131H195a20.25,20.25,0,0,0-19.11,13.53l-48,136.2c-11.82,33.54,3,71.13,35.12,86.38.72.34,1.43.67,2.16,1A73.63,73.63,0,0,0,268.14,300.5a73.67,73.67,0,1,0,147.33,0,73.66,73.66,0,1,0,147.32,0,73.67,73.67,0,0,0,103.07,67.55c.72-.31,1.44-.64,2.15-1C700.13,351.82,715,314.23,703.13,280.69Z"/><path class="cls-2" d="M562.79,366a98.45,98.45,0,0,1-147.32,0,98.46,98.46,0,0,1-147.33,0A98.46,98.46,0,0,1,165.08,394.6V688H464.77V442.52h130V688h71.06V394.6A98.48,98.48,0,0,1,562.79,366Zm-195,208.23H236.13V442.52H367.79Z"/></svg>