<?xml version="1.0" encoding="utf-8"?>
<!-- Generator: Adobe Illustrator 24.0.2, SVG Export Plug-In . SVG Version: 6.00 Build 0)  -->
<svg version="1.1" id="Ñëîé_1" xmlns="http://www.w3.org/2000/svg" xmlns:xlink="http://www.w3.org/1999/xlink" x="0px" y="0px"
	 viewBox="0 0 434.3 454.6" style="enable-background:new 0 0 434.3 454.6;" xml:space="preserve">
<title>Artboard 2</title>
<ellipse transform="matrix(0.7071 -0.7071 0.7071 0.7071 33.6814 247.3509)" cx="315.4" cy="83" rx="41.5" ry="41.5"/>
<circle cx="120" cy="84.5" r="41.5"/>
<path d="M281.5,182.4c0-13.4-10.8-24.2-24.2-24.2h-79.2c-13.3,0-24.2,10.8-24.2,24.2c0,0,0,0,0,0v102.3c0,13.4,10.8,24.2,24.2,24.2
	h0.7v83c0,10.3,8.3,18.6,18.6,18.6H238c10.3,0,18.6-8.3,18.6-18.6v-83h0.7c13.4,0,24.2-10.8,24.2-24.2L281.5,182.4z"/>
<circle cx="217.7" cy="103.2" r="46.6"/>
<path d="M139.2,284.7V182.4c0-19.1,13.8-35.3,32.7-38.4c-2.1-2.3-4-4.8-5.7-7.4c-3.3-2-7.1-3-10.9-3H84.7
	c-11.9,0-21.5,9.6-21.5,21.5v91.1c0,11.9,9.6,21.5,21.5,21.5h0.6v74c0,9.1,7.4,16.5,16.5,16.5h36.2c9.1,0,16.5-7.4,16.5-16.5l0,0
	v-26C144.9,308.3,139.2,296.9,139.2,284.7z"/>
<path d="M350.7,132h-70.5c-3.3,0-6.6,0.8-9.5,2.2c-2,3.4-4.4,6.7-7,9.7c18.8,3.1,32.6,19.4,32.7,38.4v102.4c0,12.2-5.8,23.6-15.5,31
	v24.5c0,9.1,7.4,16.5,16.5,16.5c0,0,0,0,0,0h36.2c9.1,0,16.5-7.4,16.5-16.5c0,0,0,0,0,0v-74h0.6c11.9,0,21.5-9.6,21.5-21.5
	c0,0,0,0,0,0v-91.1C372.3,141.7,362.7,132,350.7,132C350.7,132,350.7,132,350.7,132z"/>
</svg>
