<svg id="Ñëîé_1" data-name="Ñëîé 1" xmlns="http://www.w3.org/2000/svg" viewBox="0 0 434.26 454.59"><defs><style>.cls-1{fill:#f4f4f4;}.cls-2{fill:#f5f5f5;}.cls-3{fill:#f6f6f6;}.cls-4{fill:#f7f7f7;}.cls-5{fill:#f8f8f8;}.cls-6{fill:#f9f9f9;}.cls-7{fill:#fafafa;}.cls-8{fill:#fbfbfb;}.cls-9{fill:#fcfcfc;}.cls-10{fill:#fdfdfd;}.cls-11{fill:#fefefe;}.cls-12{fill:#fff;}.cls-13{fill:#3a3a3a;}</style></defs><title>Artboard 2</title><polygon class="cls-1" points="572.03 466.14 217.7 466.14 -136.63 466.14 -136.63 168.9 -136.63 -128.33 217.7 -128.33 572.03 -128.33 572.03 168.9 572.03 466.14"/><path class="cls-2" d="M-128-119.1c5.34-4,337.53-6.44,345.68-6.44S558-123.08,563.38-119.1,572,162.83,572,168.9,568.69,453,563.3,457s-337.49,6.38-345.6,6.38-340.27-2.43-345.61-6.38-8.72-282-8.72-288.06S-133.33-115.13-128-119.1Z"/><path class="cls-3" d="M-119.33-109.87c10.68-8,320.72-12.88,337-12.88s326.35,4.92,337,12.88S572,156.76,572,168.9s-6.67,270.93-17.45,278.89S233.93,460.55,217.7,460.55s-326.21-4.87-336.88-12.76S-136.63,181.1-136.63,168.9-130-101.92-119.33-109.87Z"/><path class="cls-4" d="M-110.69-100.64c16-11.93,303.93-19.31,328.39-19.31s312.35,7.38,328.39,19.31S572,150.7,572,168.9s-10,257.77-26.18,269.72c-16,11.83-303.81,19.14-328.15,19.14s-312.14-7.31-328.15-19.14c-16.17-11.95-26.18-251.42-26.18-269.72S-126.72-88.71-110.69-100.64Z"/><path class="cls-5" d="M-102-91.41c21.38-15.91,287.12-25.75,319.74-25.75s298.36,9.84,319.74,25.75S572,144.63,572,168.9s-13.35,244.62-34.9,260.55C515.78,445.22,250.16,455,217.7,455s-298.08-9.74-319.43-25.51c-21.55-15.93-34.9-236.16-34.9-260.55S-123.41-75.5-102-91.41Z"/><path class="cls-6" d="M-93.39-82.18c26.72-19.89,270.32-32.19,311.09-32.19s284.37,12.3,311.09,32.19S572,138.56,572,168.9,555.35,400.37,528.4,420.27c-26.68,19.72-270.13,31.9-310.7,31.9S-66.32,440-93,420.27c-26.95-19.9-43.63-220.88-43.63-251.37S-120.11-62.3-93.39-82.18Z"/><path class="cls-7" d="M-84.74-72.95c32.06-23.86,253.52-38.62,302.44-38.62S488.08-96.81,520.14-72.95,572,132.49,572,168.9c0,36.59-20,218.31-52.35,242.2-32,23.66-253.29,38.28-302,38.28s-269.95-14.62-302-38.28c-32.33-23.89-52.35-205.61-52.35-242.2C-136.63,132.49-116.8-49.09-84.74-72.95Z"/><path class="cls-7" d="M-76.09-63.72c37.4-27.84,236.71-45.06,293.79-45.06S474.09-91.56,511.49-63.72,572,126.42,572,168.9c0,42.69-23.36,205.16-61.08,233-37.36,27.6-236.45,44.65-293.25,44.65S-38.19,429.53-75.55,401.93c-37.72-27.87-61.08-190.34-61.08-233C-136.63,126.42-113.5-35.88-76.09-63.72Z"/><path class="cls-8" d="M-67.44-54.49C-24.7-86.31,152.47-106,217.7-106S460.1-86.31,502.84-54.49,572,120.35,572,168.9c0,48.78-26.69,192-69.81,223.85-42.69,31.55-219.6,51-284.52,51s-241.83-19.49-284.53-51c-43.11-31.85-69.8-175.07-69.8-223.85C-136.63,120.35-110.19-22.68-67.44-54.49Z"/><path class="cls-9" d="M-58.8-45.26C-10.7-81,144.32-103.19,217.7-103.19S446.1-81,494.19-45.26,572,114.29,572,168.9c0,54.88-30,178.85-78.53,214.68C445.46,419.07,290.73,441,217.7,441S-10.06,419.07-58.1,383.58c-48.5-35.83-78.53-159.8-78.53-214.68C-136.63,114.29-106.89-9.47-58.8-45.26Z"/><path class="cls-10" d="M-50.15-36C3.29-75.8,136.16-100.4,217.7-100.4S432.11-75.8,485.55-36,572,108.22,572,168.9c0,61-33.37,165.7-87.26,205.51C431.4,413.84,298.85,438.2,217.7,438.2S4,413.84-49.37,374.41c-53.89-39.81-87.26-144.53-87.26-205.51C-136.63,108.22-103.58,3.74-50.15-36Z"/><path class="cls-11" d="M-41.5-26.8C17.28-70.55,128-97.6,217.7-97.6S418.12-70.55,476.9-26.8,572,102.15,572,168.9c0,67.08-36.71,152.54-96,196.34C417.34,408.61,307,435.41,217.7,435.41S18.06,408.61-40.65,365.24c-59.28-43.8-96-129.26-96-196.34C-136.63,102.15-100.28,16.94-41.5-26.8Z"/><path class="cls-12" d="M572,168.9c0,145.65-158.64,263.71-354.33,263.71S-136.63,314.55-136.63,168.9C-136.63,96.08-97,30.15-32.85-17.57S119.85-94.81,217.7-94.81,404.13-65.29,468.25-17.57,572,96.08,572,168.9Z"/><circle class="cls-13" cx="315.42" cy="83.02" r="41.51" transform="translate(33.68 247.35) rotate(-45)"/><circle class="cls-13" cx="119.98" cy="84.51" r="41.51" transform="translate(-11.97 20.26) rotate(-9.2)"/><path class="cls-13" d="M281.48,182.35a24.18,24.18,0,0,0-24.18-24.18H178.1a24.17,24.17,0,0,0-24.18,24.18V284.68a24.18,24.18,0,0,0,24.18,24.18h.7v83.05a18.58,18.58,0,0,0,18.57,18.58H238a18.58,18.58,0,0,0,18.57-18.58V308.86h.7a24.19,24.19,0,0,0,24.18-24.18Z"/><circle class="cls-13" cx="217.7" cy="103.15" r="46.61" transform="translate(-17.87 52.78) rotate(-13.28)"/><path class="cls-13" d="M139.16,284.68V182.35a39,39,0,0,1,32.66-38.44,62.15,62.15,0,0,1-5.66-7.42,21.39,21.39,0,0,0-10.91-3H84.71a21.54,21.54,0,0,0-21.54,21.54v91.14a21.54,21.54,0,0,0,21.54,21.54h.62v74a16.55,16.55,0,0,0,16.54,16.54h36.21a16.54,16.54,0,0,0,16.54-16.54v-26A39.08,39.08,0,0,1,139.16,284.68Z"/><path class="cls-13" d="M350.69,132H280.15a21.52,21.52,0,0,0-9.54,2.22,61,61,0,0,1-7,9.66,39,39,0,0,1,32.66,38.44V284.68a39.08,39.08,0,0,1-15.46,31v24.5a16.53,16.53,0,0,0,16.54,16.54h36.21a16.54,16.54,0,0,0,16.54-16.54v-74h.62a21.53,21.53,0,0,0,21.54-21.53V153.56A21.53,21.53,0,0,0,350.69,132Z"/></svg>